Simulation
nRows=36
nColumns=15
endheader
time  TH_x TH_y TH_z SC_y  SC_z  SC_x  AC_y  AC_z  AC_x  GH_y  GH_z  GH_yy  EL_x  PS_y
8.6175  0.000000  0.000000  0.000000  -38.67894911483132  -1.1201093392429022  -7.240911421714335  46.40274401239888  12.430223948886397  3.9902912895961955  32.71276699221768  2.8836662932917667  -18.549000721474403  20.573686493337952  120.000000
8.67495  0.000000  0.000000  0.000000  -38.75223831766125  -1.003273401499019  -7.726210238247613  45.504434335946016  12.757938044331917  3.7773835877240773  45.50605599678433  3.677157161539757  -30.620555201975193  20.506514059031794  120.000000
8.7324  0.000000  0.000000  0.000000  -38.8614074946135  -0.8503571842850627  -8.183005607508541  44.699180752064265  13.034646494968575  3.6527920741918916  56.53643579414171  4.967886335986049  -40.70535720801489  20.61644524782812  120.000000
8.78985  0.000000  0.000000  0.000000  -39.04660531593814  -0.6356111921012862  -8.565189757817542  44.02757932874501  13.257739478331482  3.6266439376124584  64.96668349966411  6.82595861242389  -48.03594360778704  20.884388197417742  120.000000
8.8473  0.000000  0.000000  0.000000  -39.35116548744073  -0.3236641691489532  -8.83026579314803  43.50448512891715  13.429885789791259  3.699299266855129  71.22009925469635  9.26642830908  -53.1482089016305  21.246726920829843  120.000000
8.90475  0.000000  0.000000  0.000000  -39.80714620547413  0.11870861100425897  -8.941795843296445  43.12309009582567  13.553597290366678  3.8651421881746284  75.9775085646162  12.258462813412882  -56.851228389640184  21.62480300477295  120.000000
8.9622  0.000000  0.000000  0.000000  -40.42186802537211  0.7160984329896697  -8.867571726084106  42.871156159751436  13.62881722591533  4.1148095858051015  79.76514521405778  15.738371178960222  -59.79151157434121  21.954000353187666  120.000000
9.01965  0.000000  0.000000  0.000000  -41.17008694164962  1.4835390173112262  -8.573124992759864  42.74582435281777  13.654746733882106  4.440241447163302  82.90559927517751  19.62568793411154  -62.38933704364662  22.200113407865484  120.000000
9.0771  0.000000  0.000000  0.000000  -42.006145859152284  2.425079187378987  -8.018498367264984  42.75427097797627  13.634320910613443  4.836667744423415  85.55975805842644  23.831111770615422  -64.87763837209297  22.356378403296134  120.000000
9.13455  0.000000  0.000000  0.000000  -42.8805086824033  3.5352274889061137  -7.157616731320796  42.90693670447448  13.581309369131066  5.300091453235423  87.78116256815584  28.255827425718852  -67.35708463059466  22.428125691754026  120.000000
9.192  0.000000  0.000000  0.000000  -43.75406876118956  4.799863923031271  -5.939388797991412  43.21013842636395  13.518652446123948  5.829843195644478  89.56793721488484  32.79379969290869  -69.84813070168781  22.41925773211307  120.000000
9.24945  0.000000  0.000000  0.000000  -44.60720962136466  6.193554063346705  -4.312519541048226  43.659608338496625  13.469063214341329  6.4325577407430705  90.90267445783822  37.33494368799536  -72.32852880972564  22.32484047355698  120.000000
9.3069  0.000000  0.000000  0.000000  -45.44080825527202  7.67882152316939  -2.2376075543511096  44.242197872260306  13.444523718870805  7.118967232844413  91.77572236149838  41.76980115408534  -74.75545197366027  22.132344080753615  120.000000
9.36435  0.000000  0.000000  0.000000  -46.27319669014448  9.207917095054372  0.3018914115711887  44.94167357444941  13.442474080729136  7.896931253094265  92.19316684318389  45.99631051140534  -77.07636506041356  21.82992260822571  120.000000
9.421800000000001  0.000000  0.000000  0.000000  -47.13424073523644  10.726202165010019  3.290510335146026  45.74340488026624  13.448476976719965  8.762965499767816  92.17506838365549  49.92617802824419  -79.23576985602513  21.418738662158777  120.000000
9.47925  0.000000  0.000000  0.000000  -48.06082273702028  12.170850959891114  6.676020148078734  46.630343133898215  13.439033006489407  9.699658633546342  91.75235804775281  53.48645469409885  -81.18117785933087  20.920539291167458  120.000000
9.5367  0.000000  0.000000  0.000000  -49.08489790563637  13.472091153311451  10.368444098367362  47.5784724429818  13.387625726064478  10.676623644587842  90.9657237567128  56.61946195224873  -82.86597322085555  20.375506137451474  120.000000
9.59415  0.000000  0.000000  0.000000  -50.21788362476311  14.55993005264654  14.241944457935594  48.5561979636438  13.27018101723771  11.655094487047032  89.86826482894067  59.28485353551398  -84.2501463926254  19.831074585687002  120.000000
9.6516  0.000000  0.000000  0.000000  -51.430906264414396  15.378789427745668  18.139498662833184  49.52829780602438  13.072625264241186  12.591493261934245  88.53119008405807  61.460915941156976  -85.30227304695153  19.330107736270996  120.000000
9.70905  0.000000  0.000000  0.000000  -52.652256563739826  15.909651721496001  21.88282660340264  50.46303569616276  12.796147634487456  13.437437870692472  87.04786437832293  63.146287514564165  -86.00426194450965  18.903786220255643  120.000000
9.7665  0.000000  0.000000  0.000000  -53.777899561177605  16.174096218447595  25.2866315988193  51.330177410403614  12.454870480556721  14.143578613626394  85.53153259949707  64.35599459586159  -86.35872748140201  18.57109178630488  120.000000
9.82395  0.000000  0.000000  0.000000  -54.69454354488695  16.22642865071197  28.177519647862223  52.098437762515324  12.073024093598278  14.662525020453769  84.10516866436181  65.1160101925795  -86.39509194612499  18.341847298292844  120.000000
9.8814  0.000000  0.000000  0.000000  -55.29879267801088  16.1359869913047  30.40926933573714  52.734050270839695  11.684180041828617  14.951649618498205  82.88283369513152  65.45776408502697  -86.16739538217577  18.218020152510828  120.000000
9.93885  0.000000  0.000000  0.000000  -55.51039482118647  15.963989700238166  31.86948603278468  53.20539650502537  11.32429464644714  14.979804179285376  81.95149159404222  65.41320210185381  -85.74409179803463  18.19040299737706  120.000000
9.9963  0.000000  0.000000  0.000000  -55.27868861317204  15.751481249252905  32.479827946418716  53.493935148361935  11.025884388190015  14.730122462919129  81.35236548809809  65.01220186689422  -85.19014737990257  18.238135099183996  120.000000
10.05375  0.000000  0.000000  0.000000  -54.58926083846992  15.509813019363754  32.19298961782226  53.601502031892934  10.810498985535157  14.203652776587072  81.07128886520248  64.27918519646882  -84.54669118338502  18.33257629081896  120.000000
10.1112  0.000000  0.000000  0.000000  -53.46655840926407  15.214199392380044  30.999094396723475  53.54480371195874  10.689096646506288  13.42443679184201  81.04502183730068  63.23140581708697  -83.81428088498086  18.443673019591408  120.000000
10.16865  0.000000  0.000000  0.000000  -51.97355259096567  14.802632171836917  28.941610732339004  53.34214382595737  10.672273151469783  12.442650430043928  81.17929832528354  61.878943496740696  -82.94460457524121  18.54427872922274  120.000000
10.2261  0.000000  0.000000  0.000000  -50.21098412320781  14.18925818925195  26.12703633165278  53.00306440009305  10.777330930049228  11.330853697554186  81.36400418601487  60.227605129477006  -81.8476811678695  18.61275289477343  120.000000
10.28355  0.000000  0.000000  0.000000  -48.30755371610404  13.29937106620815  22.717269394790264  52.53255399167906  11.033405214289115  10.171370089877772  81.48414026221297  58.2858328983578  -80.41454338227446  18.63606939937708  120.000000
10.341000000000001  0.000000  0.000000  0.000000  -46.399564114362335  12.097895471599633  18.89909548886346  51.938408798193265  11.469347282508405  9.04671015593077  81.4362262450221  56.06906465774779  -78.5511693998641  18.616012641352544  120.000000
10.39845  0.000000  0.000000  0.000000  -44.60491524649224  10.604519778528731  14.846265228619101  51.23569633273178  12.099402971664807  8.030559961637099  81.14045832443185  53.60150246224222  -76.2034973347729  18.58008633032061  120.000000
10.4559  0.000000  0.000000  0.000000  -43.00777517082198  8.885285961528353  10.696207527544987  50.44238009955436  12.914398286763484  7.184582149799183  80.54952748347719  50.912990108711725  -73.36846166187131  18.588580153243015  120.000000
10.51335  0.000000  0.000000  0.000000  -41.65473477669814  7.029507389597807  6.545745222520964  49.56987052222323  13.885343866773526  6.557859812593225  79.64107368494057  48.034875214941906  -70.082465475986  18.722091572512973  120.000000
10.5708  0.000000  0.000000  0.000000  -40.56449842072572  5.135844947381069  2.4619252926099167  48.624068038535  14.977878281795348  6.184078728669114  78.40529209466789  45.00194620570754  -66.40247554386347  19.054996965848034  120.000000
10.62825  0.000000  0.000000  0.000000  -39.73495450536069  3.2931069739314567  -1.5053379965461033  47.606162941159575  16.162789078780687  6.082891936397143  76.83257326254707  41.85287958532518  -62.38749376367385  19.620638355175448  120.000000
